<?xml version="1.0" encoding="utf-8"?>
<!-- Generator: Adobe Illustrator 28.0.0, SVG Export Plug-In . SVG Version: 6.00 Build 0)  -->
<svg version="1.1" id="Layer_1" xmlns="http://www.w3.org/2000/svg" xmlns:xlink="http://www.w3.org/1999/xlink" x="0px" y="0px"
	 viewBox="0 0 1920 369.9" style="enable-background:new 0 0 1920 369.9;" xml:space="preserve">
<style type="text/css">
	.st0{opacity:0.8;}
	.st1{opacity:0.3;fill:#07286E;}
	.st2{fill:#07286E;}
	.st3{opacity:0.9;fill:#07286E;}
	.st4{opacity:0.7;fill:#07286E;}
	.st5{opacity:0.6;fill:#07286E;}
	.st6{opacity:0.5;fill:#07286E;}
	.st7{opacity:0.8;fill:#07286E;}
	.st8{opacity:0.4;fill:#07286E;}
</style>
<g>
	<g class="st0">
		<g>
			<g>
				<g>
					
						<rect x="415.8" y="-103.5" transform="matrix(-9.803824e-07 1 -1 -9.803824e-07 320.3089 -519.2826)" class="st1" width="8" height="8"/>
					
						<rect x="322.3" y="81.6" transform="matrix(-9.803829e-07 1 -1 -9.803829e-07 439.6889 -240.7296)" class="st2" width="35.8" height="35.8"/>
					
						<rect x="364.1" y="83.6" transform="matrix(-9.803828e-07 1 -1 -9.803828e-07 479.4818 -280.5229)" class="st3" width="31.8" height="31.8"/>
					
						<rect x="324.3" y="43.8" transform="matrix(-9.803831e-07 1 -1 -9.803831e-07 399.8957 -280.5229)" class="st3" width="31.8" height="31.8"/>
					
						<rect x="324.3" y="123.4" transform="matrix(-9.803829e-07 1 -1 -9.803829e-07 479.4821 -200.9364)" class="st3" width="31.8" height="31.8"/>
					
						<rect x="248.7" y="206.9" transform="matrix(-9.803831e-07 1 -1 -9.803831e-07 479.4825 -41.7633)" class="st4" width="23.9" height="23.9"/>
					
						<rect x="284.5" y="83.6" transform="matrix(-9.803822e-07 1 -1 -9.803822e-07 399.8959 -200.9364)" class="st3" width="31.8" height="31.8"/>
					
						<rect x="208.9" y="167.1" transform="matrix(-9.803831e-07 1 -1 -9.803831e-07 399.8963 -41.7633)" class="st4" width="23.9" height="23.9"/>
					
						<rect x="169.1" y="127.3" transform="matrix(-9.803831e-07 1 -1 -9.803831e-07 320.3102 -41.7634)" class="st4" width="23.9" height="23.9"/>
					
						<rect x="131.3" y="129.3" transform="matrix(-9.803834e-07 1 -1 -9.803834e-07 280.5172 -1.9701)" class="st5" width="19.9" height="19.9"/>
					
						<rect x="53.7" y="171.1" transform="matrix(-9.803852e-07 1 -1 -9.803852e-07 240.7244 117.4097)" class="st6" width="15.9" height="15.9"/>
					
						<rect x="286.5" y="45.8" transform="matrix(-9.803831e-07 1 -1 -9.803831e-07 360.1027 -240.7297)" class="st7" width="27.9" height="27.9"/>
					
						<rect x="286.5" y="125.3" transform="matrix(-9.803830e-07 1 -1 -9.803830e-07 439.6891 -161.1431)" class="st7" width="27.9" height="27.9"/>
					
						<rect x="326.3" y="165.1" transform="matrix(-9.803831e-07 1 -1 -9.803831e-07 519.2752 -161.1431)" class="st7" width="27.9" height="27.9"/>
					
						<rect x="366.1" y="125.3" transform="matrix(-9.803838e-07 1 -1 -9.803838e-07 519.275 -240.7296)" class="st7" width="27.9" height="27.9"/>
					
						<rect x="366.1" y="45.8" transform="matrix(-9.803830e-07 1 -1 -9.803830e-07 439.6887 -320.3162)" class="st7" width="27.9" height="27.9"/>
					
						<rect x="326.3" y="6" transform="matrix(-9.803840e-07 1 -1 -9.803840e-07 360.1025 -320.3162)" class="st7" width="27.9" height="27.9"/>
					
						<rect x="246.7" y="85.6" transform="matrix(-9.803830e-07 1 -1 -9.803830e-07 360.1029 -161.1431)" class="st7" width="27.9" height="27.9"/>
					
						<rect x="405.9" y="85.6" transform="matrix(-9.803830e-07 1 -1 -9.803830e-07 519.2748 -320.3161)" class="st7" width="27.9" height="27.9"/>
					
						<rect x="165.1" y="202.9" transform="matrix(-9.803828e-07 1 -1 -9.803828e-07 399.8965 37.8232)" class="st3" width="31.8" height="31.8"/>
					
						<rect x="167.1" y="165.1" transform="matrix(-9.803830e-07 1 -1 -9.803830e-07 360.1033 -1.9701)" class="st7" width="27.9" height="27.9"/>
					
						<rect x="83.5" y="2" transform="matrix(-9.803828e-07 1 -1 -9.803828e-07 121.3447 -81.5567)" class="st2" width="35.8" height="35.8"/>
					
						<rect x="125.3" y="4" transform="matrix(-9.803831e-07 1 -1 -9.803831e-07 161.1376 -121.35)" class="st3" width="31.8" height="31.8"/>
					
						<rect x="85.5" y="-35.8" transform="matrix(-9.803829e-07 1 -1 -9.803829e-07 81.5515 -121.35)" class="st3" width="31.8" height="31.8"/>
					
						<rect x="45.7" y="4" transform="matrix(-9.803828e-07 1 -1 -9.803828e-07 81.5517 -41.7635)" class="st3" width="31.8" height="31.8"/>
					
						<rect x="47.7" y="-33.8" transform="matrix(-9.803840e-07 1 -1 -9.803840e-07 41.7585 -81.5568)" class="st7" width="27.9" height="27.9"/>
					
						<rect x="47.7" y="45.8" transform="matrix(-9.803831e-07 1 -1 -9.803831e-07 121.3449 -1.9702)" class="st7" width="27.9" height="27.9"/>
					
						<rect x="87.5" y="85.6" transform="matrix(-9.803839e-07 1 -1 -9.803839e-07 200.931 -1.9702)" class="st7" width="27.9" height="27.9"/>
					
						<rect x="127.3" y="45.8" transform="matrix(-9.803839e-07 1 -1 -9.803839e-07 200.9308 -81.5567)" class="st7" width="27.9" height="27.9"/>
					
						<rect x="127.3" y="-33.8" transform="matrix(-9.803830e-07 1 -1 -9.803830e-07 121.3445 -161.1433)" class="st7" width="27.9" height="27.9"/>
					
						<rect x="87.5" y="-73.6" transform="matrix(-9.803837e-07 1 -1 -9.803837e-07 41.7583 -161.1433)" class="st7" width="27.9" height="27.9"/>
					
						<rect x="7.9" y="6" transform="matrix(-9.803831e-07 1 -1 -9.803831e-07 41.7587 -1.9703)" class="st7" width="27.9" height="27.9"/>
					
						<rect x="167.1" y="6" transform="matrix(-9.803831e-07 1 -1 -9.803831e-07 200.9306 -161.1432)" class="st7" width="27.9" height="27.9"/>
					
						<rect x="85.5" y="43.8" transform="matrix(-9.803831e-07 1 -1 -9.803831e-07 161.1378 -41.7635)" class="st3" width="31.8" height="31.8"/>
					
						<rect x="129.3" y="167.1" transform="matrix(-9.803831e-07 1 -1 -9.803831e-07 320.3104 37.8232)" class="st4" width="23.9" height="23.9"/>
					
						<rect x="89.5" y="206.9" transform="matrix(-9.803831e-07 1 -1 -9.803831e-07 320.3105 117.4097)" class="st4" width="23.9" height="23.9"/>
					
						<rect x="49.7" y="246.7" transform="matrix(-9.803831e-07 1 -1 -9.803831e-07 320.3108 196.9962)" class="st4" width="23.9" height="23.9"/>
					
						<rect x="288.5" y="246.7" transform="matrix(-9.803841e-07 1 -1 -9.803841e-07 559.0686 -41.7632)" class="st4" width="23.9" height="23.9"/>
					
						<rect x="288.5" y="167.1" transform="matrix(-9.803831e-07 1 -1 -9.803831e-07 479.4822 -121.3498)" class="st4" width="23.9" height="23.9"/>
					
						<rect x="248.7" y="127.3" transform="matrix(-9.803840e-07 1 -1 -9.803840e-07 399.8961 -121.3499)" class="st4" width="23.9" height="23.9"/>
					
						<rect x="208.9" y="87.5" transform="matrix(-9.803840e-07 1 -1 -9.803840e-07 320.3099 -121.3499)" class="st4" width="23.9" height="23.9"/>
					
						<rect x="210.9" y="129.3" transform="matrix(-9.803834e-07 1 -1 -9.803834e-07 360.1031 -81.5566)" class="st5" width="19.9" height="19.9"/>
					
						<rect x="250.7" y="169.1" transform="matrix(-9.803834e-07 1 -1 -9.803834e-07 439.6893 -81.5566)" class="st5" width="19.9" height="19.9"/>
					
						<rect x="290.5" y="208.9" transform="matrix(-9.803824e-07 1 -1 -9.803824e-07 519.2754 -81.5565)" class="st5" width="19.9" height="19.9"/>
					
						<rect x="171.1" y="89.5" transform="matrix(-9.803832e-07 1 -1 -9.803832e-07 280.517 -81.5567)" class="st5" width="19.9" height="19.9"/>
					
						<rect x="169.1" y="47.7" transform="matrix(-9.803831e-07 1 -1 -9.803831e-07 240.7238 -121.35)" class="st4" width="23.9" height="23.9"/>
					
						<rect x="129.3" y="87.5" transform="matrix(-9.803831e-07 1 -1 -9.803831e-07 240.724 -41.7634)" class="st4" width="23.9" height="23.9"/>
					
						<rect x="89.5" y="127.3" transform="matrix(-9.803831e-07 1 -1 -9.803831e-07 240.7242 37.8231)" class="st4" width="23.9" height="23.9"/>
					
						<rect x="49.7" y="87.5" transform="matrix(-9.803823e-07 1 -1 -9.803823e-07 161.1381 37.8231)" class="st4" width="23.9" height="23.9"/>
					
						<rect x="208.9" y="8" transform="matrix(-9.803821e-07 1 -1 -9.803821e-07 240.7236 -200.9365)" class="st4" width="23.9" height="23.9"/>
					
						<rect x="169.1" y="-31.8" transform="matrix(-9.803831e-07 1 -1 -9.803831e-07 161.1375 -200.9365)" class="st4" width="23.9" height="23.9"/>
					
						<rect x="129.3" y="-71.6" transform="matrix(-9.803823e-07 1 -1 -9.803823e-07 81.5513 -200.9366)" class="st4" width="23.9" height="23.9"/>
					
						<rect x="9.9" y="47.7" transform="matrix(-9.803821e-07 1 -1 -9.803821e-07 81.5519 37.823)" class="st4" width="23.9" height="23.9"/>
					
						<rect x="9.9" y="-31.8" transform="matrix(-9.803831e-07 1 -1 -9.803831e-07 1.9656 -41.7635)" class="st4" width="23.9" height="23.9"/>
					
						<rect x="49.7" y="-71.6" transform="matrix(-9.803823e-07 1 -1 -9.803823e-07 1.9654 -121.3501)" class="st4" width="23.9" height="23.9"/>
					
						<rect x="89.5" y="-111.4" transform="matrix(-9.803831e-07 1 -1 -9.803831e-07 1.9652 -200.9366)" class="st4" width="23.9" height="23.9"/>
					
						<rect x="51.7" y="129.3" transform="matrix(-9.803822e-07 1 -1 -9.803822e-07 200.9312 77.6164)" class="st5" width="19.9" height="19.9"/>
					
						<rect x="91.5" y="169.1" transform="matrix(-9.803822e-07 1 -1 -9.803822e-07 280.5174 77.6164)" class="st5" width="19.9" height="19.9"/>
					
						<rect x="11.9" y="89.5" transform="matrix(-9.803824e-07 1 -1 -9.803824e-07 121.3451 77.6163)" class="st5" width="19.9" height="19.9"/>
					
						<rect x="11.9" y="248.7" transform="matrix(-9.803845e-07 1 -1 -9.803845e-07 280.5178 236.7895)" class="st5" width="19.9" height="19.9"/>
					
						<rect x="171.1" y="-69.6" transform="matrix(-9.803832e-07 1 -1 -9.803832e-07 121.3443 -240.7298)" class="st5" width="19.9" height="19.9"/>
					
						<rect x="210.9" y="-29.8" transform="matrix(-9.803822e-07 1 -1 -9.803822e-07 200.9304 -240.7298)" class="st5" width="19.9" height="19.9"/>
					
						<rect x="250.7" y="9.9" transform="matrix(-9.803834e-07 1 -1 -9.803834e-07 280.5166 -240.7297)" class="st5" width="19.9" height="19.9"/>
					
						<rect x="131.3" y="-109.4" transform="matrix(-9.803824e-07 1 -1 -9.803824e-07 41.7581 -240.7299)" class="st5" width="19.9" height="19.9"/>
					
						<rect x="248.7" y="47.7" transform="matrix(-9.803831e-07 1 -1 -9.803831e-07 320.3098 -200.9364)" class="st4" width="23.9" height="23.9"/>
					
						<rect x="210.9" y="49.7" transform="matrix(-9.803832e-07 1 -1 -9.803832e-07 280.5168 -161.1432)" class="st5" width="19.9" height="19.9"/>
					
						<rect x="51.7" y="-109.4" transform="matrix(-9.803834e-07 1 -1 -9.803834e-07 -37.8278 -161.1434)" class="st5" width="19.9" height="19.9"/>
					
						<rect x="11.9" y="-69.6" transform="matrix(-9.803836e-07 1 -1 -9.803836e-07 -37.8276 -81.5568)" class="st5" width="19.9" height="19.9"/>
					
						<rect x="368.1" y="167.1" transform="matrix(-9.803823e-07 1 -1 -9.803823e-07 559.0682 -200.9363)" class="st4" width="23.9" height="23.9"/>
					
						<rect x="407.9" y="127.3" transform="matrix(-9.803831e-07 1 -1 -9.803831e-07 559.068 -280.5228)" class="st4" width="23.9" height="23.9"/>
					
						<rect x="447.7" y="87.5" transform="matrix(-9.803821e-07 1 -1 -9.803821e-07 559.0678 -360.1094)" class="st4" width="23.9" height="23.9"/>
					
						<rect x="409.8" y="169.1" transform="matrix(-9.803822e-07 1 -1 -9.803822e-07 598.8611 -240.7296)" class="st5" width="19.9" height="19.9"/>
					
						<rect x="449.6" y="129.3" transform="matrix(-9.803832e-07 1 -1 -9.803832e-07 598.861 -320.3161)" class="st5" width="19.9" height="19.9"/>
					
						<rect x="370.1" y="208.9" transform="matrix(-9.803822e-07 1 -1 -9.803822e-07 598.8614 -161.143)" class="st5" width="19.9" height="19.9"/>
					
						<rect x="210.9" y="-109.4" transform="matrix(-9.803845e-07 1 -1 -9.803845e-07 121.3441 -320.3164)" class="st5" width="19.9" height="19.9"/>
					
						<rect x="13.9" y="131.3" transform="matrix(-9.803836e-07 1 -1 -9.803836e-07 161.1383 117.4096)" class="st6" width="15.9" height="15.9"/>
					
						<rect x="13.9" y="210.9" transform="matrix(-9.803823e-07 1 -1 -9.803823e-07 240.7246 196.9962)" class="st6" width="15.9" height="15.9"/>
					
						<rect x="451.6" y="171.1" transform="matrix(-9.803848e-07 1 -1 -9.803848e-07 638.6541 -280.5228)" class="st6" width="15.9" height="15.9"/>
					
						<rect x="13.9" y="-107.4" transform="matrix(-9.803836e-07 1 -1 -9.803836e-07 -77.6208 -121.3501)" class="st6" width="15.9" height="15.9"/>
					
						<rect x="407.9" y="47.7" transform="matrix(-9.803821e-07 1 -1 -9.803821e-07 479.4816 -360.1094)" class="st4" width="23.9" height="23.9"/>
					
						<rect x="368.1" y="8" transform="matrix(-9.803831e-07 1 -1 -9.803831e-07 399.8955 -360.1095)" class="st4" width="23.9" height="23.9"/>
					
						<rect x="328.3" y="-31.8" transform="matrix(-9.803821e-07 1 -1 -9.803821e-07 320.3094 -360.1095)" class="st4" width="23.9" height="23.9"/>
					
						<rect x="288.5" y="8" transform="matrix(-9.803821e-07 1 -1 -9.803821e-07 320.3095 -280.523)" class="st4" width="23.9" height="23.9"/>
					
						<rect x="290.5" y="-29.8" transform="matrix(-9.803822e-07 1 -1 -9.803822e-07 280.5164 -320.3163)" class="st5" width="19.9" height="19.9"/>
					
						<rect x="370.1" y="-29.8" transform="matrix(-9.803832e-07 1 -1 -9.803832e-07 360.1023 -399.9028)" class="st5" width="19.9" height="19.9"/>
					
						<rect x="409.8" y="9.9" transform="matrix(-9.803820e-07 1 -1 -9.803820e-07 439.6885 -399.9027)" class="st5" width="19.9" height="19.9"/>
					
						<rect x="449.6" y="49.7" transform="matrix(-9.803822e-07 1 -1 -9.803822e-07 519.2746 -399.9027)" class="st5" width="19.9" height="19.9"/>
					
						<rect x="330.3" y="-69.6" transform="matrix(-9.803822e-07 1 -1 -9.803822e-07 280.5162 -399.9028)" class="st5" width="19.9" height="19.9"/>
					
						<rect x="169.1" y="-111.4" transform="matrix(-9.803831e-07 1 -1 -9.803831e-07 81.5511 -280.5231)" class="st4" width="23.9" height="23.9"/>
					
						<rect x="372" y="250.7" transform="matrix(-9.803823e-07 1 -1 -9.803823e-07 638.6545 -121.3497)" class="st6" width="15.9" height="15.9"/>
					
						<rect x="332.3" y="-107.4" transform="matrix(-9.803821e-07 1 -1 -9.803821e-07 240.723 -439.6961)" class="st6" width="15.9" height="15.9"/>
					
						<rect x="292.5" y="-67.7" transform="matrix(-9.803833e-07 1 -1 -9.803833e-07 240.7232 -360.1096)" class="st6" width="15.9" height="15.9"/>
					
						<rect x="252.7" y="-27.9" transform="matrix(-9.803833e-07 1 -1 -9.803833e-07 240.7234 -280.523)" class="st6" width="15.9" height="15.9"/>
					
						<rect x="212.9" y="-67.7" transform="matrix(-9.803833e-07 1 -1 -9.803833e-07 161.1373 -280.5231)" class="st6" width="15.9" height="15.9"/>
					
						<rect x="411.8" y="-27.9" transform="matrix(-9.803823e-07 1 -1 -9.803823e-07 399.8953 -439.696)" class="st6" width="15.9" height="15.9"/>
					
						<rect x="372" y="-67.7" transform="matrix(-9.803823e-07 1 -1 -9.803823e-07 320.3091 -439.696)" class="st6" width="15.9" height="15.9"/>
					
						<rect x="254.7" y="-65.7" transform="matrix(-9.803824e-07 1 -1 -9.803824e-07 200.9302 -320.3163)" class="st8" width="11.9" height="11.9"/>
					
						<rect x="252.7" y="-107.4" transform="matrix(-9.803823e-07 1 -1 -9.803823e-07 161.137 -360.1096)" class="st6" width="15.9" height="15.9"/>
					
						<rect x="294.4" y="-105.5" transform="matrix(-9.803842e-07 1 -1 -9.803842e-07 200.93 -399.9029)" class="st8" width="11.9" height="11.9"/>
					
						<rect x="374" y="-105.5" transform="matrix(-9.803822e-07 1 -1 -9.803822e-07 280.516 -479.4893)" class="st8" width="11.9" height="11.9"/>
					
						<rect x="413.8" y="-65.7" transform="matrix(-9.803822e-07 1 -1 -9.803822e-07 360.1021 -479.4893)" class="st8" width="11.9" height="11.9"/>
					
						<rect x="15.9" y="173.1" transform="matrix(-9.803800e-07 1 -1 -9.803800e-07 200.9314 157.2029)" class="st8" width="11.9" height="11.9"/>
					
						<rect x="447.7" y="8" transform="matrix(-9.803831e-07 1 -1 -9.803831e-07 479.4814 -439.696)" class="st4" width="23.9" height="23.9"/>
					
						<rect x="449.6" y="-29.8" transform="matrix(-9.803834e-07 1 -1 -9.803834e-07 439.6883 -479.4893)" class="st5" width="19.9" height="19.9"/>
					
						<rect x="451.6" y="-67.7" transform="matrix(-9.803823e-07 1 -1 -9.803823e-07 399.8951 -519.2825)" class="st6" width="15.9" height="15.9"/>
					
						<rect x="453.6" y="-105.5" transform="matrix(-9.803800e-07 1 -1 -9.803800e-07 360.1019 -559.0759)" class="st8" width="11.9" height="11.9"/>
					
						<rect x="453.6" y="212.9" transform="matrix(-9.803842e-07 1 -1 -9.803842e-07 678.4473 -240.7295)" class="st8" width="11.9" height="11.9"/>
					
						<rect x="413.8" y="252.7" transform="matrix(-9.803841e-07 1 -1 -9.803841e-07 678.4475 -161.143)" class="st8" width="11.9" height="11.9"/>
				</g>
			</g>
		</g>
		<g>
			<g>
				<g>
					
						<rect x="893.3" y="-103.5" transform="matrix(-9.803854e-07 1 -1 -9.803854e-07 797.8246 -996.8016)" class="st1" width="8" height="8"/>
					
						<rect x="799.8" y="81.6" transform="matrix(-9.803834e-07 1 -1 -9.803834e-07 917.2045 -718.2486)" class="st2" width="35.8" height="35.8"/>
					
						<rect x="841.6" y="83.6" transform="matrix(-9.803828e-07 1 -1 -9.803828e-07 956.9975 -758.0419)" class="st3" width="31.8" height="31.8"/>
					
						<rect x="801.8" y="43.8" transform="matrix(-9.803828e-07 1 -1 -9.803828e-07 877.4114 -758.0419)" class="st3" width="31.8" height="31.8"/>
					
						<rect x="801.8" y="123.4" transform="matrix(-9.803830e-07 1 -1 -9.803830e-07 956.9977 -678.4553)" class="st3" width="31.8" height="31.8"/>
					
						<rect x="762" y="83.6" transform="matrix(-9.803844e-07 1 -1 -9.803844e-07 877.4116 -678.4553)" class="st3" width="31.8" height="31.8"/>
					
						<rect x="686.4" y="167.1" transform="matrix(-9.803831e-07 1 -1 -9.803831e-07 877.412 -519.2823)" class="st4" width="23.9" height="23.9"/>
					
						<rect x="646.6" y="127.3" transform="matrix(-9.803840e-07 1 -1 -9.803840e-07 797.8258 -519.2823)" class="st4" width="23.9" height="23.9"/>
					
						<rect x="531.2" y="171.1" transform="matrix(-9.803838e-07 1 -1 -9.803838e-07 718.2401 -360.1093)" class="st6" width="15.9" height="15.9"/>
					
						<rect x="764" y="45.8" transform="matrix(-9.803830e-07 1 -1 -9.803830e-07 837.6184 -718.2487)" class="st7" width="27.9" height="27.9"/>
					
						<rect x="764" y="125.3" transform="matrix(-9.803831e-07 1 -1 -9.803831e-07 917.2048 -638.662)" class="st7" width="27.9" height="27.9"/>
					
						<rect x="803.8" y="165.1" transform="matrix(-9.803830e-07 1 -1 -9.803830e-07 996.7909 -638.662)" class="st7" width="27.9" height="27.9"/>
					
						<rect x="843.6" y="125.3" transform="matrix(-9.803839e-07 1 -1 -9.803839e-07 996.7907 -718.2485)" class="st7" width="27.9" height="27.9"/>
					
						<rect x="843.6" y="45.8" transform="matrix(-9.803830e-07 1 -1 -9.803830e-07 917.2043 -797.8351)" class="st7" width="27.9" height="27.9"/>
					
						<rect x="803.8" y="6" transform="matrix(-9.803837e-07 1 -1 -9.803837e-07 837.6182 -797.8352)" class="st7" width="27.9" height="27.9"/>
					
						<rect x="724.2" y="85.6" transform="matrix(-9.803830e-07 1 -1 -9.803830e-07 837.6186 -638.6621)" class="st7" width="27.9" height="27.9"/>
					
						<rect x="883.4" y="85.5" transform="matrix(-9.803840e-07 1 -1 -9.803840e-07 996.7905 -797.8351)" class="st7" width="27.9" height="27.9"/>
					
						<rect x="684.4" y="204.9" transform="matrix(-9.803830e-07 1 -1 -9.803830e-07 917.2051 -479.489)" class="st7" width="27.9" height="27.9"/>
					
						<rect x="644.6" y="165.1" transform="matrix(-9.803830e-07 1 -1 -9.803830e-07 837.619 -479.489)" class="st7" width="27.9" height="27.9"/>
					
						<rect x="565" y="244.7" transform="matrix(-9.803831e-07 1 -1 -9.803831e-07 837.6194 -320.3159)" class="st7" width="27.9" height="27.9"/>
					
						<rect x="561.1" y="2" transform="matrix(-9.803834e-07 1 -1 -9.803834e-07 598.8604 -559.0757)" class="st2" width="35.8" height="35.8"/>
					
						<rect x="602.8" y="4" transform="matrix(-9.803837e-07 1 -1 -9.803837e-07 638.6533 -598.869)" class="st3" width="31.8" height="31.8"/>
					
						<rect x="563.1" y="-35.8" transform="matrix(-9.803829e-07 1 -1 -9.803829e-07 559.0672 -598.869)" class="st3" width="31.8" height="31.8"/>
					
						<rect x="523.3" y="4" transform="matrix(-9.803829e-07 1 -1 -9.803829e-07 559.0674 -519.2825)" class="st3" width="31.8" height="31.8"/>
					
						<rect x="525.2" y="-33.8" transform="matrix(-9.803831e-07 1 -1 -9.803831e-07 519.2742 -559.0757)" class="st7" width="27.9" height="27.9"/>
					
						<rect x="525.2" y="45.8" transform="matrix(-9.803840e-07 1 -1 -9.803840e-07 598.8605 -479.4892)" class="st7" width="27.9" height="27.9"/>
					
						<rect x="565" y="85.6" transform="matrix(-9.803831e-07 1 -1 -9.803831e-07 678.4467 -479.4891)" class="st7" width="27.9" height="27.9"/>
					
						<rect x="604.8" y="45.8" transform="matrix(-9.803830e-07 1 -1 -9.803830e-07 678.4465 -559.0757)" class="st7" width="27.9" height="27.9"/>
					
						<rect x="604.8" y="-33.8" transform="matrix(-9.803840e-07 1 -1 -9.803840e-07 598.8602 -638.6622)" class="st7" width="27.9" height="27.9"/>
					
						<rect x="565" y="-73.6" transform="matrix(-9.803838e-07 1 -1 -9.803838e-07 519.274 -638.6623)" class="st7" width="27.9" height="27.9"/>
					
						<rect x="485.5" y="6" transform="matrix(-9.803830e-07 1 -1 -9.803830e-07 519.2744 -479.4892)" class="st7" width="27.9" height="27.9"/>
					
						<rect x="644.6" y="6" transform="matrix(-9.803830e-07 1 -1 -9.803830e-07 678.4463 -638.6622)" class="st7" width="27.9" height="27.9"/>
					
						<rect x="563.1" y="43.8" transform="matrix(-9.803828e-07 1 -1 -9.803828e-07 638.6535 -519.2824)" class="st3" width="31.8" height="31.8"/>
					
						<rect x="606.8" y="167.1" transform="matrix(-9.803823e-07 1 -1 -9.803823e-07 797.826 -439.6958)" class="st4" width="23.9" height="23.9"/>
					
						<rect x="766" y="246.7" transform="matrix(-9.803821e-07 1 -1 -9.803821e-07 1036.5842 -519.2822)" class="st4" width="23.9" height="23.9"/>
					
						<rect x="766" y="167.1" transform="matrix(-9.803831e-07 1 -1 -9.803831e-07 956.9979 -598.8688)" class="st4" width="23.9" height="23.9"/>
					
						<rect x="726.2" y="127.3" transform="matrix(-9.803831e-07 1 -1 -9.803831e-07 877.4118 -598.8688)" class="st4" width="23.9" height="23.9"/>
					
						<rect x="686.4" y="87.5" transform="matrix(-9.803840e-07 1 -1 -9.803840e-07 797.8256 -598.8688)" class="st4" width="23.9" height="23.9"/>
					
						<rect x="688.4" y="129.3" transform="matrix(-9.803836e-07 1 -1 -9.803836e-07 837.6188 -559.0756)" class="st5" width="19.9" height="19.9"/>
					
						<rect x="768" y="208.9" transform="matrix(-9.803833e-07 1 -1 -9.803833e-07 996.7911 -559.0755)" class="st5" width="19.9" height="19.9"/>
					
						<rect x="648.6" y="89.5" transform="matrix(-9.803822e-07 1 -1 -9.803822e-07 758.0327 -559.0756)" class="st5" width="19.9" height="19.9"/>
					
						<rect x="646.6" y="47.7" transform="matrix(-9.803831e-07 1 -1 -9.803831e-07 718.2395 -598.8689)" class="st4" width="23.9" height="23.9"/>
					
						<rect x="606.8" y="87.5" transform="matrix(-9.803831e-07 1 -1 -9.803831e-07 718.2397 -519.2823)" class="st4" width="23.9" height="23.9"/>
					
						<rect x="567" y="127.3" transform="matrix(-9.803821e-07 1 -1 -9.803821e-07 718.2399 -439.6958)" class="st4" width="23.9" height="23.9"/>
					
						<rect x="527.2" y="87.5" transform="matrix(-9.803821e-07 1 -1 -9.803821e-07 638.6537 -439.6959)" class="st4" width="23.9" height="23.9"/>
					
						<rect x="686.4" y="8" transform="matrix(-9.803821e-07 1 -1 -9.803821e-07 718.2393 -678.4554)" class="st4" width="23.9" height="23.9"/>
					
						<rect x="646.6" y="-31.8" transform="matrix(-9.803831e-07 1 -1 -9.803831e-07 638.6531 -678.4555)" class="st4" width="23.9" height="23.9"/>
					
						<rect x="606.8" y="-71.6" transform="matrix(-9.803831e-07 1 -1 -9.803831e-07 559.067 -678.4555)" class="st4" width="23.9" height="23.9"/>
					
						<rect x="487.4" y="47.7" transform="matrix(-9.803831e-07 1 -1 -9.803831e-07 559.0676 -439.6959)" class="st4" width="23.9" height="23.9"/>
					
						<rect x="487.4" y="-31.8" transform="matrix(-9.803831e-07 1 -1 -9.803831e-07 479.4812 -519.2825)" class="st4" width="23.9" height="23.9"/>
					
						<rect x="527.2" y="-71.6" transform="matrix(-9.803831e-07 1 -1 -9.803831e-07 479.481 -598.869)" class="st4" width="23.9" height="23.9"/>
					
						<rect x="567" y="-111.4" transform="matrix(-9.803831e-07 1 -1 -9.803831e-07 479.4808 -678.4556)" class="st4" width="23.9" height="23.9"/>
					
						<rect x="529.2" y="129.3" transform="matrix(-9.803833e-07 1 -1 -9.803833e-07 678.4469 -399.9026)" class="st5" width="19.9" height="19.9"/>
					
						<rect x="569" y="169.1" transform="matrix(-9.803832e-07 1 -1 -9.803832e-07 758.0331 -399.9025)" class="st5" width="19.9" height="19.9"/>
					
						<rect x="489.4" y="89.5" transform="matrix(-9.803834e-07 1 -1 -9.803834e-07 598.8608 -399.9026)" class="st5" width="19.9" height="19.9"/>
					
						<rect x="529.2" y="208.9" transform="matrix(-9.803832e-07 1 -1 -9.803832e-07 758.0333 -320.316)" class="st5" width="19.9" height="19.9"/>
					
						<rect x="489.4" y="248.7" transform="matrix(-9.803832e-07 1 -1 -9.803832e-07 758.0334 -240.7295)" class="st5" width="19.9" height="19.9"/>
					
						<rect x="648.6" y="-69.6" transform="matrix(-9.803832e-07 1 -1 -9.803832e-07 598.8599 -718.2488)" class="st5" width="19.9" height="19.9"/>
					
						<rect x="688.4" y="-29.8" transform="matrix(-9.803822e-07 1 -1 -9.803822e-07 678.4461 -718.2487)" class="st5" width="19.9" height="19.9"/>
					
						<rect x="728.2" y="9.9" transform="matrix(-9.803833e-07 1 -1 -9.803833e-07 758.0322 -718.2487)" class="st5" width="19.9" height="19.9"/>
					
						<rect x="608.8" y="-109.4" transform="matrix(-9.803845e-07 1 -1 -9.803845e-07 519.2738 -718.2488)" class="st5" width="19.9" height="19.9"/>
					
						<rect x="726.2" y="47.7" transform="matrix(-9.803831e-07 1 -1 -9.803831e-07 797.8254 -678.4554)" class="st4" width="23.9" height="23.9"/>
					
						<rect x="688.4" y="49.7" transform="matrix(-9.803824e-07 1 -1 -9.803824e-07 758.0325 -638.6622)" class="st5" width="19.9" height="19.9"/>
					
						<rect x="529.2" y="-109.4" transform="matrix(-9.803824e-07 1 -1 -9.803824e-07 439.6879 -638.6624)" class="st5" width="19.9" height="19.9"/>
					
						<rect x="489.4" y="-69.6" transform="matrix(-9.803824e-07 1 -1 -9.803824e-07 439.688 -559.0758)" class="st5" width="19.9" height="19.9"/>
					
						<rect x="845.6" y="167.1" transform="matrix(-9.803831e-07 1 -1 -9.803831e-07 1036.5839 -678.4553)" class="st4" width="23.9" height="23.9"/>
					
						<rect x="885.4" y="127.3" transform="matrix(-9.803821e-07 1 -1 -9.803821e-07 1036.5836 -758.0418)" class="st4" width="23.9" height="23.9"/>
					
						<rect x="925.2" y="87.5" transform="matrix(-9.803831e-07 1 -1 -9.803831e-07 1036.5835 -837.6284)" class="st4" width="23.9" height="23.9"/>
					
						<rect x="887.4" y="169.1" transform="matrix(-9.803820e-07 1 -1 -9.803820e-07 1076.3768 -718.2485)" class="st5" width="19.9" height="19.9"/>
					
						<rect x="927.2" y="129.3" transform="matrix(-9.803832e-07 1 -1 -9.803832e-07 1076.3766 -797.835)" class="st5" width="19.9" height="19.9"/>
					
						<rect x="847.6" y="208.9" transform="matrix(-9.803822e-07 1 -1 -9.803822e-07 1076.3771 -638.662)" class="st5" width="19.9" height="19.9"/>
					
						<rect x="688.4" y="-109.4" transform="matrix(-9.803823e-07 1 -1 -9.803823e-07 598.8597 -797.8353)" class="st5" width="19.9" height="19.9"/>
					
						<rect x="491.4" y="131.3" transform="matrix(-9.803836e-07 1 -1 -9.803836e-07 638.6539 -360.1093)" class="st6" width="15.9" height="15.9"/>
					
						<rect x="491.4" y="210.9" transform="matrix(-9.803836e-07 1 -1 -9.803836e-07 718.2403 -280.5227)" class="st6" width="15.9" height="15.9"/>
					
						<rect x="929.1" y="171.1" transform="matrix(-9.803849e-07 1 -1 -9.803849e-07 1116.1698 -758.0417)" class="st6" width="15.9" height="15.9"/>
					
						<rect x="491.4" y="-107.4" transform="matrix(-9.803836e-07 1 -1 -9.803836e-07 399.8949 -598.8691)" class="st6" width="15.9" height="15.9"/>
					
						<rect x="885.4" y="47.7" transform="matrix(-9.803840e-07 1 -1 -9.803840e-07 956.9973 -837.6284)" class="st4" width="23.9" height="23.9"/>
					
						<rect x="845.6" y="8" transform="matrix(-9.803831e-07 1 -1 -9.803831e-07 877.4112 -837.6284)" class="st4" width="23.9" height="23.9"/>
					
						<rect x="805.8" y="-31.8" transform="matrix(-9.803831e-07 1 -1 -9.803831e-07 797.825 -837.6285)" class="st4" width="23.9" height="23.9"/>
					
						<rect x="766" y="8" transform="matrix(-9.803833e-07 1 -1 -9.803833e-07 797.8252 -758.0419)" class="st4" width="23.9" height="23.9"/>
					
						<rect x="768" y="-29.9" transform="matrix(-9.803832e-07 1 -1 -9.803832e-07 758.032 -797.8352)" class="st5" width="19.9" height="19.9"/>
					
						<rect x="847.6" y="-29.9" transform="matrix(-9.803834e-07 1 -1 -9.803834e-07 837.618 -877.4217)" class="st5" width="19.9" height="19.9"/>
					
						<rect x="887.4" y="9.9" transform="matrix(-9.803822e-07 1 -1 -9.803822e-07 917.2042 -877.4217)" class="st5" width="19.9" height="19.9"/>
					
						<rect x="927.2" y="49.7" transform="matrix(-9.803837e-07 1 -1 -9.803837e-07 996.7903 -877.4216)" class="st5" width="19.9" height="19.9"/>
					
						<rect x="807.8" y="-69.6" transform="matrix(-9.803820e-07 1 -1 -9.803820e-07 758.0319 -877.4218)" class="st5" width="19.9" height="19.9"/>
					
						<rect x="646.6" y="-111.4" transform="matrix(-9.803831e-07 1 -1 -9.803831e-07 559.0668 -758.0421)" class="st4" width="23.9" height="23.9"/>
					
						<rect x="849.6" y="250.7" transform="matrix(-9.803823e-07 1 -1 -9.803823e-07 1116.1702 -598.8687)" class="st6" width="15.9" height="15.9"/>
					
						<rect x="809.8" y="-107.4" transform="matrix(-9.803836e-07 1 -1 -9.803836e-07 718.2386 -917.2151)" class="st6" width="15.9" height="15.9"/>
					
						<rect x="770" y="-67.7" transform="matrix(-9.803836e-07 1 -1 -9.803836e-07 718.2389 -837.6285)" class="st6" width="15.9" height="15.9"/>
					
						<rect x="730.2" y="-27.9" transform="matrix(-9.803836e-07 1 -1 -9.803836e-07 718.2391 -758.042)" class="st6" width="15.9" height="15.9"/>
					
						<rect x="690.4" y="-67.7" transform="matrix(-9.803838e-07 1 -1 -9.803838e-07 638.653 -758.0421)" class="st6" width="15.9" height="15.9"/>
					
						<rect x="889.4" y="-27.9" transform="matrix(-9.803820e-07 1 -1 -9.803820e-07 877.4109 -917.215)" class="st6" width="15.9" height="15.9"/>
					
						<rect x="849.6" y="-67.7" transform="matrix(-9.803823e-07 1 -1 -9.803823e-07 797.8248 -917.215)" class="st6" width="15.9" height="15.9"/>
					
						<rect x="732.2" y="-65.7" transform="matrix(-9.803821e-07 1 -1 -9.803821e-07 678.4459 -797.8353)" class="st8" width="11.9" height="11.9"/>
					
						<rect x="730.2" y="-107.4" transform="matrix(-9.803823e-07 1 -1 -9.803823e-07 638.6527 -837.6285)" class="st6" width="15.9" height="15.9"/>
					
						<rect x="772" y="-105.5" transform="matrix(-9.803824e-07 1 -1 -9.803824e-07 678.4457 -877.4218)" class="st8" width="11.9" height="11.9"/>
					
						<rect x="851.6" y="-105.5" transform="matrix(-9.803842e-07 1 -1 -9.803842e-07 758.0316 -957.0083)" class="st8" width="11.9" height="11.9"/>
					
						<rect x="891.3" y="-65.7" transform="matrix(-9.803822e-07 1 -1 -9.803822e-07 837.6178 -957.0082)" class="st8" width="11.9" height="11.9"/>
					
						<rect x="493.4" y="173.1" transform="matrix(-9.803821e-07 1 -1 -9.803821e-07 678.4471 -320.316)" class="st8" width="11.9" height="11.9"/>
					
						<rect x="925.2" y="8" transform="matrix(-9.803831e-07 1 -1 -9.803831e-07 956.9971 -917.2149)" class="st4" width="23.9" height="23.9"/>
					
						<rect x="927.2" y="-29.9" transform="matrix(-9.803822e-07 1 -1 -9.803822e-07 917.2039 -957.0082)" class="st5" width="19.9" height="19.9"/>
					
						<rect x="929.1" y="-67.7" transform="matrix(-9.803823e-07 1 -1 -9.803823e-07 877.4108 -996.8015)" class="st6" width="15.9" height="15.9"/>
					
						<rect x="931.1" y="-105.5" transform="matrix(-9.803839e-07 1 -1 -9.803839e-07 837.6176 -1036.5948)" class="st8" width="11.9" height="11.9"/>
					
						<rect x="929.1" y="250.7" transform="matrix(-9.803836e-07 1 -1 -9.803836e-07 1195.7562 -678.4551)" class="st6" width="15.9" height="15.9"/>
					
						<rect x="931.1" y="212.9" transform="matrix(-9.803841e-07 1 -1 -9.803841e-07 1155.963 -718.2485)" class="st8" width="11.9" height="11.9"/>
					
						<rect x="891.3" y="252.7" transform="matrix(-9.803842e-07 1 -1 -9.803842e-07 1155.9631 -638.6619)" class="st8" width="11.9" height="11.9"/>
					
						<rect x="893.3" y="294.5" transform="matrix(-9.803823e-07 1 -1 -9.803823e-07 1195.7563 -598.8687)" class="st1" width="8" height="8"/>
				</g>
			</g>
		</g>
	</g>
	<g class="st0">
		<g>
			<g>
				<g>
					
						<rect x="1376" y="-109.4" transform="matrix(-9.803791e-07 1 -1 -9.803791e-07 1274.5134 -1485.4194)" class="st1" width="8" height="8"/>
					
						<rect x="1282.5" y="75.6" transform="matrix(-9.803828e-07 1 -1 -9.803828e-07 1393.8933 -1206.8665)" class="st2" width="35.8" height="35.8"/>
					
						<rect x="1324.3" y="77.6" transform="matrix(-9.803829e-07 1 -1 -9.803829e-07 1433.6863 -1246.6597)" class="st3" width="31.8" height="31.8"/>
					
						<rect x="1284.5" y="37.8" transform="matrix(-9.803838e-07 1 -1 -9.803838e-07 1354.1001 -1246.6598)" class="st3" width="31.8" height="31.8"/>
					
						<rect x="1284.5" y="117.4" transform="matrix(-9.803830e-07 1 -1 -9.803830e-07 1433.6865 -1167.0731)" class="st3" width="31.8" height="31.8"/>
					
						<rect x="1208.9" y="201" transform="matrix(-9.803842e-07 1 -1 -9.803842e-07 1433.6869 -1007.9001)" class="st4" width="23.9" height="23.9"/>
					
						<rect x="1244.7" y="77.6" transform="matrix(-9.803829e-07 1 -1 -9.803829e-07 1354.1003 -1167.0732)" class="st3" width="31.8" height="31.8"/>
					
						<rect x="1169.1" y="161.2" transform="matrix(-9.803831e-07 1 -1 -9.803831e-07 1354.1007 -1007.9001)" class="st4" width="23.9" height="23.9"/>
					
						<rect x="1129.3" y="121.4" transform="matrix(-9.803831e-07 1 -1 -9.803831e-07 1274.5146 -1007.9001)" class="st4" width="23.9" height="23.9"/>
					
						<rect x="1091.5" y="123.4" transform="matrix(-9.803832e-07 1 -1 -9.803832e-07 1234.7217 -968.1069)" class="st5" width="19.9" height="19.9"/>
					
						<rect x="1013.9" y="165.1" transform="matrix(-9.803839e-07 1 -1 -9.803839e-07 1194.9288 -848.7271)" class="st6" width="15.9" height="15.9"/>
					
						<rect x="1246.7" y="39.8" transform="matrix(-9.803831e-07 1 -1 -9.803831e-07 1314.3071 -1206.8665)" class="st7" width="27.9" height="27.9"/>
					
						<rect x="1246.7" y="119.4" transform="matrix(-9.803830e-07 1 -1 -9.803830e-07 1393.8936 -1127.2799)" class="st7" width="27.9" height="27.9"/>
					
						<rect x="1286.5" y="159.2" transform="matrix(-9.803831e-07 1 -1 -9.803831e-07 1473.4796 -1127.2799)" class="st7" width="27.9" height="27.9"/>
					
						<rect x="1326.2" y="119.4" transform="matrix(-9.803830e-07 1 -1 -9.803830e-07 1473.4795 -1206.8665)" class="st7" width="27.9" height="27.9"/>
					
						<rect x="1326.2" y="39.8" transform="matrix(-9.803831e-07 1 -1 -9.803831e-07 1393.8931 -1286.453)" class="st7" width="27.9" height="27.9"/>
					
						<rect x="1286.5" y="0" transform="matrix(-9.803831e-07 1 -1 -9.803831e-07 1314.307 -1286.453)" class="st7" width="27.9" height="27.9"/>
					
						<rect x="1206.9" y="79.6" transform="matrix(-9.803830e-07 1 -1 -9.803830e-07 1314.3074 -1127.2799)" class="st7" width="27.9" height="27.9"/>
					
						<rect x="1366" y="79.6" transform="matrix(-9.803837e-07 1 -1 -9.803837e-07 1473.4792 -1286.4529)" class="st7" width="27.9" height="27.9"/>
					
						<rect x="1125.3" y="197" transform="matrix(-9.803828e-07 1 -1 -9.803828e-07 1354.101 -928.3136)" class="st3" width="31.8" height="31.8"/>
					
						<rect x="1127.3" y="159.2" transform="matrix(-9.803830e-07 1 -1 -9.803830e-07 1314.3077 -968.1069)" class="st7" width="27.9" height="27.9"/>
					
						<rect x="1043.7" y="-4" transform="matrix(-9.803828e-07 1 -1 -9.803828e-07 1075.5491 -1047.6936)" class="st2" width="35.8" height="35.8"/>
					
						<rect x="1085.5" y="-2" transform="matrix(-9.803831e-07 1 -1 -9.803831e-07 1115.342 -1087.4868)" class="st3" width="31.8" height="31.8"/>
					
						<rect x="1045.7" y="-41.8" transform="matrix(-9.803836e-07 1 -1 -9.803836e-07 1035.756 -1087.4868)" class="st3" width="31.8" height="31.8"/>
					
						<rect x="1005.9" y="-2" transform="matrix(-9.803829e-07 1 -1 -9.803829e-07 1035.7561 -1007.9003)" class="st3" width="31.8" height="31.8"/>
					
						<rect x="1007.9" y="-39.8" transform="matrix(-9.803831e-07 1 -1 -9.803831e-07 995.963 -1047.6936)" class="st7" width="27.9" height="27.9"/>
					
						<rect x="1007.9" y="39.8" transform="matrix(-9.803838e-07 1 -1 -9.803838e-07 1075.5493 -968.107)" class="st7" width="27.9" height="27.9"/>
					
						<rect x="1047.7" y="79.6" transform="matrix(-9.803830e-07 1 -1 -9.803830e-07 1155.1355 -968.107)" class="st7" width="27.9" height="27.9"/>
					
						<rect x="1087.5" y="39.8" transform="matrix(-9.803839e-07 1 -1 -9.803839e-07 1155.1353 -1047.6935)" class="st7" width="27.9" height="27.9"/>
					
						<rect x="1087.5" y="-39.8" transform="matrix(-9.803830e-07 1 -1 -9.803830e-07 1075.549 -1127.2802)" class="st7" width="27.9" height="27.9"/>
					
						<rect x="1047.7" y="-79.6" transform="matrix(-9.803830e-07 1 -1 -9.803830e-07 995.9628 -1127.2802)" class="st7" width="27.9" height="27.9"/>
					
						<rect x="968.1" y="0" transform="matrix(-9.803831e-07 1 -1 -9.803831e-07 995.9632 -968.1071)" class="st7" width="27.9" height="27.9"/>
					
						<rect x="1127.3" y="0" transform="matrix(-9.803831e-07 1 -1 -9.803831e-07 1155.1351 -1127.28)" class="st7" width="27.9" height="27.9"/>
					
						<rect x="1045.7" y="37.8" transform="matrix(-9.803830e-07 1 -1 -9.803830e-07 1115.3423 -1007.9003)" class="st3" width="31.8" height="31.8"/>
					
						<rect x="1089.5" y="161.2" transform="matrix(-9.803831e-07 1 -1 -9.803831e-07 1274.5148 -928.3137)" class="st4" width="23.9" height="23.9"/>
					
						<rect x="1049.7" y="201" transform="matrix(-9.803831e-07 1 -1 -9.803831e-07 1274.515 -848.7271)" class="st4" width="23.9" height="23.9"/>
					
						<rect x="1009.9" y="240.7" transform="matrix(-9.803840e-07 1 -1 -9.803840e-07 1274.5153 -769.1406)" class="st4" width="23.9" height="23.9"/>
					
						<rect x="1248.6" y="240.7" transform="matrix(-9.803831e-07 1 -1 -9.803831e-07 1513.2731 -1007.9)" class="st4" width="23.9" height="23.9"/>
					
						<rect x="1248.6" y="161.2" transform="matrix(-9.803831e-07 1 -1 -9.803831e-07 1433.6866 -1087.4866)" class="st4" width="23.9" height="23.9"/>
					
						<rect x="1208.9" y="121.4" transform="matrix(-9.803831e-07 1 -1 -9.803831e-07 1354.1006 -1087.4867)" class="st4" width="23.9" height="23.9"/>
					
						<rect x="1169.1" y="81.6" transform="matrix(-9.803831e-07 1 -1 -9.803831e-07 1274.5144 -1087.4867)" class="st4" width="23.9" height="23.9"/>
					
						<rect x="1171.1" y="123.4" transform="matrix(-9.803846e-07 1 -1 -9.803846e-07 1314.3076 -1047.6934)" class="st5" width="19.9" height="19.9"/>
					
						<rect x="1210.8" y="163.2" transform="matrix(-9.803824e-07 1 -1 -9.803824e-07 1393.8937 -1047.6934)" class="st5" width="19.9" height="19.9"/>
					
						<rect x="1250.6" y="202.9" transform="matrix(-9.803823e-07 1 -1 -9.803823e-07 1473.4799 -1047.6934)" class="st5" width="19.9" height="19.9"/>
					
						<rect x="1131.3" y="83.6" transform="matrix(-9.803831e-07 1 -1 -9.803831e-07 1234.7214 -1047.6935)" class="st5" width="19.9" height="19.9"/>
					
						<rect x="1129.3" y="41.8" transform="matrix(-9.803831e-07 1 -1 -9.803831e-07 1194.9282 -1087.4868)" class="st4" width="23.9" height="23.9"/>
					
						<rect x="1089.5" y="81.6" transform="matrix(-9.803831e-07 1 -1 -9.803831e-07 1194.9285 -1007.9002)" class="st4" width="23.9" height="23.9"/>
					
						<rect x="1049.7" y="121.4" transform="matrix(-9.803842e-07 1 -1 -9.803842e-07 1194.9287 -928.3137)" class="st4" width="23.9" height="23.9"/>
					
						<rect x="1009.9" y="81.6" transform="matrix(-9.803823e-07 1 -1 -9.803823e-07 1115.3425 -928.3137)" class="st4" width="23.9" height="23.9"/>
					
						<rect x="1169.1" y="2" transform="matrix(-9.803823e-07 1 -1 -9.803823e-07 1194.9281 -1167.0732)" class="st4" width="23.9" height="23.9"/>
					
						<rect x="1129.3" y="-37.8" transform="matrix(-9.803823e-07 1 -1 -9.803823e-07 1115.3419 -1167.0734)" class="st4" width="23.9" height="23.9"/>
					
						<rect x="1089.5" y="-77.6" transform="matrix(-9.803831e-07 1 -1 -9.803831e-07 1035.7557 -1167.0734)" class="st4" width="23.9" height="23.9"/>
					
						<rect x="970.1" y="41.8" transform="matrix(-9.803821e-07 1 -1 -9.803821e-07 1035.7563 -928.3138)" class="st4" width="23.9" height="23.9"/>
					
						<rect x="970.1" y="-37.8" transform="matrix(-9.803840e-07 1 -1 -9.803840e-07 956.17 -1007.9003)" class="st4" width="23.9" height="23.9"/>
					
						<rect x="1009.9" y="-77.6" transform="matrix(-9.803823e-07 1 -1 -9.803823e-07 956.1698 -1087.4869)" class="st4" width="23.9" height="23.9"/>
					
						<rect x="1049.7" y="-117.4" transform="matrix(-9.803833e-07 1 -1 -9.803833e-07 956.1696 -1167.0735)" class="st4" width="23.9" height="23.9"/>
					
						<rect x="1011.9" y="123.4" transform="matrix(-9.803822e-07 1 -1 -9.803822e-07 1155.1356 -888.5204)" class="st5" width="19.9" height="19.9"/>
					
						<rect x="1051.7" y="163.2" transform="matrix(-9.803823e-07 1 -1 -9.803823e-07 1234.7218 -888.5204)" class="st5" width="19.9" height="19.9"/>
					
						<rect x="972.1" y="83.6" transform="matrix(-9.803823e-07 1 -1 -9.803823e-07 1075.5496 -888.5205)" class="st5" width="19.9" height="19.9"/>
					
						<rect x="972.1" y="242.7" transform="matrix(-9.803832e-07 1 -1 -9.803832e-07 1234.7223 -729.3473)" class="st5" width="19.9" height="19.9"/>
					
						<rect x="1131.3" y="-75.6" transform="matrix(-9.803822e-07 1 -1 -9.803822e-07 1075.5487 -1206.8666)" class="st5" width="19.9" height="19.9"/>
					
						<rect x="1171.1" y="-35.8" transform="matrix(-9.803822e-07 1 -1 -9.803822e-07 1155.1349 -1206.8666)" class="st5" width="19.9" height="19.9"/>
					
						<rect x="1210.8" y="4" transform="matrix(-9.803834e-07 1 -1 -9.803834e-07 1234.7211 -1206.8666)" class="st5" width="19.9" height="19.9"/>
					
						<rect x="1091.5" y="-115.4" transform="matrix(-9.803822e-07 1 -1 -9.803822e-07 995.9626 -1206.8667)" class="st5" width="19.9" height="19.9"/>
					
						<rect x="1208.9" y="41.8" transform="matrix(-9.803842e-07 1 -1 -9.803842e-07 1274.5142 -1167.0732)" class="st4" width="23.9" height="23.9"/>
					
						<rect x="1171.1" y="43.8" transform="matrix(-9.803822e-07 1 -1 -9.803822e-07 1234.7212 -1127.28)" class="st5" width="19.9" height="19.9"/>
					
						<rect x="1011.9" y="-115.4" transform="matrix(-9.803846e-07 1 -1 -9.803846e-07 916.3766 -1127.2802)" class="st5" width="19.9" height="19.9"/>
					
						<rect x="972.1" y="-75.6" transform="matrix(-9.803823e-07 1 -1 -9.803823e-07 916.3768 -1047.6936)" class="st5" width="19.9" height="19.9"/>
					
						<rect x="1328.2" y="161.2" transform="matrix(-9.803823e-07 1 -1 -9.803823e-07 1513.2726 -1167.0731)" class="st4" width="23.9" height="23.9"/>
					
						<rect x="1368" y="121.4" transform="matrix(-9.803831e-07 1 -1 -9.803831e-07 1513.2725 -1246.6597)" class="st4" width="23.9" height="23.9"/>
					
						<rect x="1407.8" y="81.6" transform="matrix(-9.803821e-07 1 -1 -9.803821e-07 1513.2722 -1326.2462)" class="st4" width="23.9" height="23.9"/>
					
						<rect x="1370" y="163.2" transform="matrix(-9.803820e-07 1 -1 -9.803820e-07 1553.0657 -1206.8663)" class="st5" width="19.9" height="19.9"/>
					
						<rect x="1409.8" y="123.4" transform="matrix(-9.803831e-07 1 -1 -9.803831e-07 1553.0654 -1286.4529)" class="st5" width="19.9" height="19.9"/>
					
						<rect x="1330.2" y="202.9" transform="matrix(-9.803822e-07 1 -1 -9.803822e-07 1553.0658 -1127.2798)" class="st5" width="19.9" height="19.9"/>
					
						<rect x="1171.1" y="-115.4" transform="matrix(-9.803834e-07 1 -1 -9.803834e-07 1075.5485 -1286.4531)" class="st5" width="19.9" height="19.9"/>
					
						<rect x="974.1" y="125.3" transform="matrix(-9.803833e-07 1 -1 -9.803833e-07 1115.3427 -848.7272)" class="st6" width="15.9" height="15.9"/>
					
						<rect x="974.1" y="204.9" transform="matrix(-9.803823e-07 1 -1 -9.803823e-07 1194.9291 -769.1406)" class="st6" width="15.9" height="15.9"/>
					
						<rect x="1411.8" y="165.1" transform="matrix(-9.803836e-07 1 -1 -9.803836e-07 1592.8586 -1246.6595)" class="st6" width="15.9" height="15.9"/>
					
						<rect x="974.1" y="-113.4" transform="matrix(-9.803824e-07 1 -1 -9.803824e-07 876.5837 -1087.4869)" class="st6" width="15.9" height="15.9"/>
					
						<rect x="1368" y="41.8" transform="matrix(-9.803822e-07 1 -1 -9.803822e-07 1433.686 -1326.2462)" class="st4" width="23.9" height="23.9"/>
					
						<rect x="1328.2" y="2" transform="matrix(-9.803840e-07 1 -1 -9.803840e-07 1354.1 -1326.2463)" class="st4" width="23.9" height="23.9"/>
					
						<rect x="1288.4" y="-37.8" transform="matrix(-9.803822e-07 1 -1 -9.803822e-07 1274.5138 -1326.2463)" class="st4" width="23.9" height="23.9"/>
					
						<rect x="1248.6" y="2" transform="matrix(-9.803821e-07 1 -1 -9.803821e-07 1274.514 -1246.6598)" class="st4" width="23.9" height="23.9"/>
					
						<rect x="1250.6" y="-35.8" transform="matrix(-9.803831e-07 1 -1 -9.803831e-07 1234.7208 -1286.4531)" class="st5" width="19.9" height="19.9"/>
					
						<rect x="1330.2" y="-35.8" transform="matrix(-9.803822e-07 1 -1 -9.803822e-07 1314.3068 -1366.0396)" class="st5" width="19.9" height="19.9"/>
					
						<rect x="1370" y="4" transform="matrix(-9.803820e-07 1 -1 -9.803820e-07 1393.8929 -1366.0396)" class="st5" width="19.9" height="19.9"/>
					
						<rect x="1409.8" y="43.8" transform="matrix(-9.803834e-07 1 -1 -9.803834e-07 1473.479 -1366.0394)" class="st5" width="19.9" height="19.9"/>
					
						<rect x="1290.4" y="-75.6" transform="matrix(-9.803831e-07 1 -1 -9.803831e-07 1234.7206 -1366.0397)" class="st5" width="19.9" height="19.9"/>
					
						<rect x="1129.3" y="-117.4" transform="matrix(-9.803831e-07 1 -1 -9.803831e-07 1035.7555 -1246.6599)" class="st4" width="23.9" height="23.9"/>
					
						<rect x="1332.2" y="244.7" transform="matrix(-9.803823e-07 1 -1 -9.803823e-07 1592.859 -1087.4866)" class="st6" width="15.9" height="15.9"/>
					
						<rect x="1292.4" y="-113.4" transform="matrix(-9.803836e-07 1 -1 -9.803836e-07 1194.9275 -1405.8329)" class="st6" width="15.9" height="15.9"/>
					
						<rect x="1252.6" y="-73.6" transform="matrix(-9.803823e-07 1 -1 -9.803823e-07 1194.9276 -1326.2463)" class="st6" width="15.9" height="15.9"/>
					
						<rect x="1212.8" y="-33.8" transform="matrix(-9.803821e-07 1 -1 -9.803821e-07 1194.9279 -1246.6598)" class="st6" width="15.9" height="15.9"/>
					
						<rect x="1173" y="-73.6" transform="matrix(-9.803833e-07 1 -1 -9.803833e-07 1115.3417 -1246.6599)" class="st6" width="15.9" height="15.9"/>
					
						<rect x="1372" y="-33.8" transform="matrix(-9.803836e-07 1 -1 -9.803836e-07 1354.0997 -1405.8328)" class="st6" width="15.9" height="15.9"/>
					
						<rect x="1332.2" y="-73.6" transform="matrix(-9.803823e-07 1 -1 -9.803823e-07 1274.5135 -1405.8329)" class="st6" width="15.9" height="15.9"/>
					
						<rect x="1214.8" y="-71.6" transform="matrix(-9.803842e-07 1 -1 -9.803842e-07 1155.1346 -1286.4531)" class="st8" width="11.9" height="11.9"/>
					
						<rect x="1212.8" y="-113.4" transform="matrix(-9.803839e-07 1 -1 -9.803839e-07 1115.3416 -1326.2465)" class="st6" width="15.9" height="15.9"/>
					
						<rect x="1254.6" y="-111.4" transform="matrix(-9.803820e-07 1 -1 -9.803820e-07 1155.1345 -1366.0397)" class="st8" width="11.9" height="11.9"/>
					
						<rect x="1334.2" y="-111.4" transform="matrix(-9.803841e-07 1 -1 -9.803841e-07 1234.7205 -1445.6261)" class="st8" width="11.9" height="11.9"/>
					
						<rect x="1374" y="-71.6" transform="matrix(-9.803824e-07 1 -1 -9.803824e-07 1314.3065 -1445.6261)" class="st8" width="11.9" height="11.9"/>
					
						<rect x="976.1" y="167.1" transform="matrix(-9.803820e-07 1 -1 -9.803820e-07 1155.1359 -808.9339)" class="st8" width="11.9" height="11.9"/>
					
						<rect x="1407.8" y="2" transform="matrix(-9.803840e-07 1 -1 -9.803840e-07 1433.6859 -1405.8328)" class="st4" width="23.9" height="23.9"/>
					
						<rect x="1409.8" y="-35.8" transform="matrix(-9.803822e-07 1 -1 -9.803822e-07 1393.8927 -1445.6261)" class="st5" width="19.9" height="19.9"/>
					
						<rect x="1411.8" y="-73.6" transform="matrix(-9.803839e-07 1 -1 -9.803839e-07 1354.0995 -1485.4193)" class="st6" width="15.9" height="15.9"/>
					
						<rect x="1413.8" y="-111.4" transform="matrix(-9.803822e-07 1 -1 -9.803822e-07 1314.3064 -1525.2126)" class="st8" width="11.9" height="11.9"/>
					
						<rect x="1413.8" y="206.9" transform="matrix(-9.803838e-07 1 -1 -9.803838e-07 1632.6517 -1206.8663)" class="st8" width="11.9" height="11.9"/>
					
						<rect x="1374" y="246.7" transform="matrix(-9.803841e-07 1 -1 -9.803841e-07 1632.652 -1127.2798)" class="st8" width="11.9" height="11.9"/>
				</g>
			</g>
		</g>
		<g>
			<g>
				<g>
					
						<rect x="1853.5" y="-109.4" transform="matrix(-9.803829e-07 1 -1 -9.803829e-07 1752.0291 -1962.9384)" class="st1" width="8" height="8"/>
					
						<rect x="1760" y="75.6" transform="matrix(-9.803836e-07 1 -1 -9.803836e-07 1871.4089 -1684.3854)" class="st2" width="35.8" height="35.8"/>
					
						<rect x="1801.8" y="77.6" transform="matrix(-9.803828e-07 1 -1 -9.803828e-07 1911.202 -1724.1786)" class="st3" width="31.8" height="31.8"/>
					
						<rect x="1762" y="37.8" transform="matrix(-9.803828e-07 1 -1 -9.803828e-07 1831.6158 -1724.1787)" class="st3" width="31.8" height="31.8"/>
					
						<rect x="1762" y="117.4" transform="matrix(-9.803829e-07 1 -1 -9.803829e-07 1911.2021 -1644.5922)" class="st3" width="31.8" height="31.8"/>
					
						<rect x="1722.2" y="77.6" transform="matrix(-9.803836e-07 1 -1 -9.803836e-07 1831.616 -1644.5922)" class="st3" width="31.8" height="31.8"/>
					
						<rect x="1646.6" y="161.2" transform="matrix(-9.803831e-07 1 -1 -9.803831e-07 1831.6165 -1485.4191)" class="st4" width="23.9" height="23.9"/>
					
						<rect x="1606.8" y="121.4" transform="matrix(-9.803831e-07 1 -1 -9.803831e-07 1752.0303 -1485.4191)" class="st4" width="23.9" height="23.9"/>
					
						<rect x="1491.4" y="165.1" transform="matrix(-9.803823e-07 1 -1 -9.803823e-07 1672.4446 -1326.2461)" class="st6" width="15.9" height="15.9"/>
					
						<rect x="1724.2" y="39.8" transform="matrix(-9.803830e-07 1 -1 -9.803830e-07 1791.8229 -1684.3855)" class="st7" width="27.9" height="27.9"/>
					
						<rect x="1724.2" y="119.4" transform="matrix(-9.803831e-07 1 -1 -9.803831e-07 1871.4092 -1604.7988)" class="st7" width="27.9" height="27.9"/>
					
						<rect x="1764" y="159.2" transform="matrix(-9.803830e-07 1 -1 -9.803830e-07 1950.9954 -1604.7988)" class="st7" width="27.9" height="27.9"/>
					
						<rect x="1803.8" y="119.4" transform="matrix(-9.803830e-07 1 -1 -9.803830e-07 1950.9951 -1684.3854)" class="st7" width="27.9" height="27.9"/>
					
						<rect x="1803.8" y="39.8" transform="matrix(-9.803839e-07 1 -1 -9.803839e-07 1871.4088 -1763.9719)" class="st7" width="27.9" height="27.9"/>
					
						<rect x="1764" y="0" transform="matrix(-9.803830e-07 1 -1 -9.803830e-07 1791.8226 -1763.972)" class="st7" width="27.9" height="27.9"/>
					
						<rect x="1684.4" y="79.6" transform="matrix(-9.803830e-07 1 -1 -9.803830e-07 1791.823 -1604.799)" class="st7" width="27.9" height="27.9"/>
					
						<rect x="1843.6" y="79.6" transform="matrix(-9.803831e-07 1 -1 -9.803831e-07 1950.995 -1763.9719)" class="st7" width="27.9" height="27.9"/>
					
						<rect x="1644.6" y="199" transform="matrix(-9.803830e-07 1 -1 -9.803830e-07 1871.4095 -1445.6257)" class="st7" width="27.9" height="27.9"/>
					
						<rect x="1604.8" y="159.2" transform="matrix(-9.803822e-07 1 -1 -9.803822e-07 1791.8235 -1445.6259)" class="st7" width="27.9" height="27.9"/>
					
						<rect x="1525.2" y="238.8" transform="matrix(-9.803831e-07 1 -1 -9.803831e-07 1791.8239 -1286.4528)" class="st7" width="27.9" height="27.9"/>
					
						<rect x="1521.2" y="-4" transform="matrix(-9.803834e-07 1 -1 -9.803834e-07 1553.0648 -1525.2125)" class="st2" width="35.8" height="35.8"/>
					
						<rect x="1563" y="-2" transform="matrix(-9.803837e-07 1 -1 -9.803837e-07 1592.8578 -1565.0057)" class="st3" width="31.8" height="31.8"/>
					
						<rect x="1523.2" y="-41.8" transform="matrix(-9.803831e-07 1 -1 -9.803831e-07 1513.2716 -1565.0059)" class="st3" width="31.8" height="31.8"/>
					
						<rect x="1483.4" y="-2" transform="matrix(-9.803831e-07 1 -1 -9.803831e-07 1513.2719 -1485.4193)" class="st3" width="31.8" height="31.8"/>
					
						<rect x="1485.4" y="-39.8" transform="matrix(-9.803831e-07 1 -1 -9.803831e-07 1473.4786 -1525.2125)" class="st7" width="27.9" height="27.9"/>
					
						<rect x="1485.4" y="39.8" transform="matrix(-9.803831e-07 1 -1 -9.803831e-07 1553.0651 -1445.626)" class="st7" width="27.9" height="27.9"/>
					
						<rect x="1525.2" y="79.6" transform="matrix(-9.803831e-07 1 -1 -9.803831e-07 1632.6511 -1445.626)" class="st7" width="27.9" height="27.9"/>
					
						<rect x="1565" y="39.8" transform="matrix(-9.803828e-07 1 -1 -9.803828e-07 1632.651 -1525.2125)" class="st7" width="27.9" height="27.9"/>
					
						<rect x="1565" y="-39.8" transform="matrix(-9.803839e-07 1 -1 -9.803839e-07 1553.0646 -1604.7991)" class="st7" width="27.9" height="27.9"/>
					
						<rect x="1525.2" y="-79.6" transform="matrix(-9.803830e-07 1 -1 -9.803830e-07 1473.4785 -1604.7991)" class="st7" width="27.9" height="27.9"/>
					
						<rect x="1445.6" y="0" transform="matrix(-9.803830e-07 1 -1 -9.803830e-07 1473.4789 -1445.626)" class="st7" width="27.9" height="27.9"/>
					
						<rect x="1604.8" y="0" transform="matrix(-9.803830e-07 1 -1 -9.803830e-07 1632.6508 -1604.799)" class="st7" width="27.9" height="27.9"/>
					
						<rect x="1523.2" y="37.8" transform="matrix(-9.803828e-07 1 -1 -9.803828e-07 1592.858 -1485.4192)" class="st3" width="31.8" height="31.8"/>
					
						<rect x="1567" y="161.2" transform="matrix(-9.803822e-07 1 -1 -9.803822e-07 1752.0305 -1405.8326)" class="st4" width="23.9" height="23.9"/>
					
						<rect x="1726.2" y="240.7" transform="matrix(-9.803821e-07 1 -1 -9.803821e-07 1990.7887 -1485.4189)" class="st4" width="23.9" height="23.9"/>
					
						<rect x="1726.2" y="161.2" transform="matrix(-9.803840e-07 1 -1 -9.803840e-07 1911.2024 -1565.0056)" class="st4" width="23.9" height="23.9"/>
					
						<rect x="1686.4" y="121.4" transform="matrix(-9.803832e-07 1 -1 -9.803832e-07 1831.6162 -1565.0056)" class="st4" width="23.9" height="23.9"/>
					
						<rect x="1646.6" y="81.6" transform="matrix(-9.803831e-07 1 -1 -9.803831e-07 1752.03 -1565.0056)" class="st4" width="23.9" height="23.9"/>
					
						<rect x="1648.6" y="123.4" transform="matrix(-9.803845e-07 1 -1 -9.803845e-07 1791.8232 -1525.2124)" class="st5" width="19.9" height="19.9"/>
					
						<rect x="1728.2" y="202.9" transform="matrix(-9.803845e-07 1 -1 -9.803845e-07 1950.9956 -1525.2123)" class="st5" width="19.9" height="19.9"/>
					
						<rect x="1608.8" y="83.6" transform="matrix(-9.803820e-07 1 -1 -9.803820e-07 1712.2371 -1525.2124)" class="st5" width="19.9" height="19.9"/>
					
						<rect x="1606.8" y="41.8" transform="matrix(-9.803841e-07 1 -1 -9.803841e-07 1672.444 -1565.0057)" class="st4" width="23.9" height="23.9"/>
					
						<rect x="1567" y="81.6" transform="matrix(-9.803842e-07 1 -1 -9.803842e-07 1672.4441 -1485.4192)" class="st4" width="23.9" height="23.9"/>
					
						<rect x="1527.2" y="121.4" transform="matrix(-9.803821e-07 1 -1 -9.803821e-07 1672.4443 -1405.8326)" class="st4" width="23.9" height="23.9"/>
					
						<rect x="1487.4" y="81.6" transform="matrix(-9.803822e-07 1 -1 -9.803822e-07 1592.8582 -1405.8326)" class="st4" width="23.9" height="23.9"/>
					
						<rect x="1646.6" y="2" transform="matrix(-9.803821e-07 1 -1 -9.803821e-07 1672.4437 -1644.5923)" class="st4" width="23.9" height="23.9"/>
					
						<rect x="1606.8" y="-37.8" transform="matrix(-9.803823e-07 1 -1 -9.803823e-07 1592.8575 -1644.5923)" class="st4" width="23.9" height="23.9"/>
					
						<rect x="1567" y="-77.6" transform="matrix(-9.803822e-07 1 -1 -9.803822e-07 1513.2715 -1644.5923)" class="st4" width="23.9" height="23.9"/>
					
						<rect x="1447.6" y="41.8" transform="matrix(-9.803822e-07 1 -1 -9.803822e-07 1513.2721 -1405.8328)" class="st4" width="23.9" height="23.9"/>
					
						<rect x="1447.6" y="-37.8" transform="matrix(-9.803841e-07 1 -1 -9.803841e-07 1433.6857 -1485.4193)" class="st4" width="23.9" height="23.9"/>
					
						<rect x="1487.4" y="-77.6" transform="matrix(-9.803831e-07 1 -1 -9.803831e-07 1433.6854 -1565.0059)" class="st4" width="23.9" height="23.9"/>
					
						<rect x="1527.2" y="-117.4" transform="matrix(-9.803831e-07 1 -1 -9.803831e-07 1433.6853 -1644.5924)" class="st4" width="23.9" height="23.9"/>
					
						<rect x="1489.4" y="123.4" transform="matrix(-9.803834e-07 1 -1 -9.803834e-07 1632.6514 -1366.0394)" class="st5" width="19.9" height="19.9"/>
					
						<rect x="1529.2" y="163.1" transform="matrix(-9.803832e-07 1 -1 -9.803832e-07 1712.2375 -1366.0393)" class="st5" width="19.9" height="19.9"/>
					
						<rect x="1449.6" y="83.6" transform="matrix(-9.803822e-07 1 -1 -9.803822e-07 1553.0652 -1366.0394)" class="st5" width="19.9" height="19.9"/>
					
						<rect x="1489.4" y="202.9" transform="matrix(-9.803820e-07 1 -1 -9.803820e-07 1712.2377 -1286.4528)" class="st5" width="19.9" height="19.9"/>
					
						<rect x="1449.6" y="242.7" transform="matrix(-9.803822e-07 1 -1 -9.803822e-07 1712.2379 -1206.8662)" class="st5" width="19.9" height="19.9"/>
					
						<rect x="1608.8" y="-75.6" transform="matrix(-9.803822e-07 1 -1 -9.803822e-07 1553.0645 -1684.3856)" class="st5" width="19.9" height="19.9"/>
					
						<rect x="1648.6" y="-35.8" transform="matrix(-9.803822e-07 1 -1 -9.803822e-07 1632.6505 -1684.3855)" class="st5" width="19.9" height="19.9"/>
					
						<rect x="1688.4" y="4" transform="matrix(-9.803824e-07 1 -1 -9.803824e-07 1712.2367 -1684.3855)" class="st5" width="19.9" height="19.9"/>
					
						<rect x="1569" y="-115.4" transform="matrix(-9.803832e-07 1 -1 -9.803832e-07 1473.4783 -1684.3856)" class="st5" width="19.9" height="19.9"/>
					
						<rect x="1686.4" y="41.8" transform="matrix(-9.803841e-07 1 -1 -9.803841e-07 1752.0299 -1644.5922)" class="st4" width="23.9" height="23.9"/>
					
						<rect x="1648.6" y="43.8" transform="matrix(-9.803824e-07 1 -1 -9.803824e-07 1712.2369 -1604.799)" class="st5" width="19.9" height="19.9"/>
					
						<rect x="1489.4" y="-115.4" transform="matrix(-9.803834e-07 1 -1 -9.803834e-07 1393.8923 -1604.7992)" class="st5" width="19.9" height="19.9"/>
					
						<rect x="1449.6" y="-75.6" transform="matrix(-9.803823e-07 1 -1 -9.803823e-07 1393.8925 -1525.2126)" class="st5" width="19.9" height="19.9"/>
					
						<rect x="1805.8" y="161.2" transform="matrix(-9.803831e-07 1 -1 -9.803831e-07 1990.7883 -1644.592)" class="st4" width="23.9" height="23.9"/>
					
						<rect x="1845.5" y="121.4" transform="matrix(-9.803831e-07 1 -1 -9.803831e-07 1990.7881 -1724.1786)" class="st4" width="23.9" height="23.9"/>
					
						<rect x="1885.3" y="81.6" transform="matrix(-9.803840e-07 1 -1 -9.803840e-07 1990.788 -1803.7651)" class="st4" width="23.9" height="23.9"/>
					
						<rect x="1847.5" y="163.1" transform="matrix(-9.803832e-07 1 -1 -9.803832e-07 2030.5813 -1684.3853)" class="st5" width="19.9" height="19.9"/>
					
						<rect x="1887.3" y="123.4" transform="matrix(-9.803845e-07 1 -1 -9.803845e-07 2030.5811 -1763.9718)" class="st5" width="19.9" height="19.9"/>
					
						<rect x="1807.7" y="202.9" transform="matrix(-9.803823e-07 1 -1 -9.803823e-07 2030.5815 -1604.7988)" class="st5" width="19.9" height="19.9"/>
					
						<rect x="1648.6" y="-115.4" transform="matrix(-9.803824e-07 1 -1 -9.803824e-07 1553.0642 -1763.9722)" class="st5" width="19.9" height="19.9"/>
					
						<rect x="1451.6" y="125.3" transform="matrix(-9.803836e-07 1 -1 -9.803836e-07 1592.8584 -1326.2461)" class="st6" width="15.9" height="15.9"/>
					
						<rect x="1451.6" y="204.9" transform="matrix(-9.803852e-07 1 -1 -9.803852e-07 1672.4447 -1246.6595)" class="st6" width="15.9" height="15.9"/>
					
						<rect x="1889.3" y="165.1" transform="matrix(-9.803836e-07 1 -1 -9.803836e-07 2070.3743 -1724.1786)" class="st6" width="15.9" height="15.9"/>
					
						<rect x="1451.6" y="-113.4" transform="matrix(-9.803820e-07 1 -1 -9.803820e-07 1354.0994 -1565.0059)" class="st6" width="15.9" height="15.9"/>
					
						<rect x="1845.5" y="41.8" transform="matrix(-9.803831e-07 1 -1 -9.803831e-07 1911.2018 -1803.7651)" class="st4" width="23.9" height="23.9"/>
					
						<rect x="1805.8" y="2" transform="matrix(-9.803841e-07 1 -1 -9.803841e-07 1831.6156 -1803.7653)" class="st4" width="23.9" height="23.9"/>
					
						<rect x="1766" y="-37.8" transform="matrix(-9.803831e-07 1 -1 -9.803831e-07 1752.0294 -1803.7653)" class="st4" width="23.9" height="23.9"/>
					
						<rect x="1726.2" y="2" transform="matrix(-9.803831e-07 1 -1 -9.803831e-07 1752.0297 -1724.1787)" class="st4" width="23.9" height="23.9"/>
					
						<rect x="1728.2" y="-35.8" transform="matrix(-9.803822e-07 1 -1 -9.803822e-07 1712.2365 -1763.972)" class="st5" width="19.9" height="19.9"/>
					
						<rect x="1807.7" y="-35.8" transform="matrix(-9.803822e-07 1 -1 -9.803822e-07 1791.8224 -1843.5585)" class="st5" width="19.9" height="19.9"/>
					
						<rect x="1847.5" y="4" transform="matrix(-9.803832e-07 1 -1 -9.803832e-07 1871.4086 -1843.5585)" class="st5" width="19.9" height="19.9"/>
					
						<rect x="1887.3" y="43.8" transform="matrix(-9.803823e-07 1 -1 -9.803823e-07 1950.9948 -1843.5585)" class="st5" width="19.9" height="19.9"/>
					
						<rect x="1767.9" y="-75.6" transform="matrix(-9.803832e-07 1 -1 -9.803832e-07 1712.2363 -1843.5586)" class="st5" width="19.9" height="19.9"/>
					
						<rect x="1606.8" y="-117.4" transform="matrix(-9.803841e-07 1 -1 -9.803841e-07 1513.2712 -1724.1788)" class="st4" width="23.9" height="23.9"/>
					
						<rect x="1809.7" y="244.7" transform="matrix(-9.803823e-07 1 -1 -9.803823e-07 2070.3748 -1565.0055)" class="st6" width="15.9" height="15.9"/>
					
						<rect x="1769.9" y="-113.4" transform="matrix(-9.803821e-07 1 -1 -9.803821e-07 1672.4431 -1883.3518)" class="st6" width="15.9" height="15.9"/>
					
						<rect x="1730.1" y="-73.6" transform="matrix(-9.803823e-07 1 -1 -9.803823e-07 1672.4434 -1803.7654)" class="st6" width="15.9" height="15.9"/>
					
						<rect x="1690.4" y="-33.8" transform="matrix(-9.803821e-07 1 -1 -9.803821e-07 1672.4435 -1724.1788)" class="st6" width="15.9" height="15.9"/>
					
						<rect x="1650.6" y="-73.6" transform="matrix(-9.803823e-07 1 -1 -9.803823e-07 1592.8574 -1724.1788)" class="st6" width="15.9" height="15.9"/>
					
						<rect x="1849.5" y="-33.8" transform="matrix(-9.803837e-07 1 -1 -9.803837e-07 1831.6155 -1883.3518)" class="st6" width="15.9" height="15.9"/>
					
						<rect x="1809.7" y="-73.6" transform="matrix(-9.803823e-07 1 -1 -9.803823e-07 1752.0293 -1883.3518)" class="st6" width="15.9" height="15.9"/>
					
						<rect x="1692.3" y="-71.6" transform="matrix(-9.803841e-07 1 -1 -9.803841e-07 1632.6504 -1763.972)" class="st8" width="11.9" height="11.9"/>
					
						<rect x="1690.4" y="-113.4" transform="matrix(-9.803836e-07 1 -1 -9.803836e-07 1592.8572 -1803.7654)" class="st6" width="15.9" height="15.9"/>
					
						<rect x="1732.1" y="-111.4" transform="matrix(-9.803841e-07 1 -1 -9.803841e-07 1632.6501 -1843.5586)" class="st8" width="11.9" height="11.9"/>
					
						<rect x="1811.7" y="-111.4" transform="matrix(-9.803838e-07 1 -1 -9.803838e-07 1712.2361 -1923.1451)" class="st8" width="11.9" height="11.9"/>
					
						<rect x="1851.5" y="-71.6" transform="matrix(-9.803804e-07 1 -1 -9.803804e-07 1791.8223 -1923.145)" class="st8" width="11.9" height="11.9"/>
					
						<rect x="1453.6" y="167.1" transform="matrix(-9.803838e-07 1 -1 -9.803838e-07 1632.6516 -1286.4529)" class="st8" width="11.9" height="11.9"/>
					
						<rect x="1885.3" y="2" transform="matrix(-9.803821e-07 1 -1 -9.803821e-07 1911.2015 -1883.3517)" class="st4" width="23.9" height="23.9"/>
					
						<rect x="1887.3" y="-35.8" transform="matrix(-9.803822e-07 1 -1 -9.803822e-07 1871.4084 -1923.145)" class="st5" width="19.9" height="19.9"/>
					
						<rect x="1889.3" y="-73.6" transform="matrix(-9.803838e-07 1 -1 -9.803838e-07 1831.6152 -1962.9384)" class="st6" width="15.9" height="15.9"/>
					
						<rect x="1891.3" y="-111.4" transform="matrix(-9.803842e-07 1 -1 -9.803842e-07 1791.822 -2002.7316)" class="st8" width="11.9" height="11.9"/>
					
						<rect x="1889.3" y="244.7" transform="matrix(-9.803836e-07 1 -1 -9.803836e-07 2149.9607 -1644.5919)" class="st6" width="15.9" height="15.9"/>
					
						<rect x="1891.3" y="206.9" transform="matrix(-9.803841e-07 1 -1 -9.803841e-07 2110.1675 -1684.3853)" class="st8" width="11.9" height="11.9"/>
					
						<rect x="1851.5" y="246.7" transform="matrix(-9.803822e-07 1 -1 -9.803822e-07 2110.1677 -1604.7987)" class="st8" width="11.9" height="11.9"/>
					
						<rect x="1853.5" y="288.5" transform="matrix(-9.803817e-07 1 -1 -9.803817e-07 2149.9609 -1565.0055)" class="st1" width="8" height="8"/>
				</g>
			</g>
		</g>
	</g>
</g>
</svg>
